<?xml version="1.0" encoding="utf-8"?>
<!-- Generator: Adobe Illustrator 25.0.0, SVG Export Plug-In . SVG Version: 6.00 Build 0)  -->
<svg version="1.1" id="レイヤー_1" xmlns="http://www.w3.org/2000/svg" xmlns:xlink="http://www.w3.org/1999/xlink" x="0px"
	 y="0px" viewBox="0 0 300 120" style="enable-background:new 0 0 300 120;" xml:space="preserve">
<style type="text/css">
	.st0{fill:#FFFFFF;}
	.st1{fill:#0F1C25;}
</style>
<g>
	<path class="st0" d="M71.2,49.6v-4.6c0.5,0.5,1.2,0.9,1.9,1.3s1.5,0.7,2.3,0.9s1.6,0.5,2.5,0.6s1.6,0.2,2.3,0.2
		c2.4,0,4.2-0.4,5.4-1.3s1.8-2.2,1.8-3.9c0-0.9-0.2-1.7-0.6-2.4s-0.9-1.3-1.7-1.8s-1.5-1.1-2.5-1.6s-2-1-3.1-1.6
		c-1.2-0.6-2.3-1.2-3.3-1.8s-1.9-1.3-2.6-2s-1.3-1.6-1.8-2.5s-0.6-2-0.6-3.3c0-1.5,0.3-2.9,1-4s1.6-2.1,2.6-2.8s2.3-1.3,3.7-1.6
		s2.8-0.5,4.3-0.5c3.3,0,5.7,0.4,7.2,1.2v4.4c-2-1.4-4.5-2.1-7.6-2.1c-0.9,0-1.7,0.1-2.6,0.3s-1.6,0.5-2.3,0.9S76.5,22.4,76,23
		s-0.6,1.4-0.6,2.3c0,0.9,0.2,1.6,0.5,2.2s0.8,1.2,1.4,1.7s1.4,1,2.3,1.5s1.9,1,3.1,1.6c1.2,0.6,2.3,1.2,3.4,1.9s2,1.4,2.8,2.2
		s1.5,1.7,1.9,2.6s0.7,2.1,0.7,3.3c0,1.7-0.3,3.1-1,4.2s-1.5,2.1-2.6,2.8s-2.4,1.2-3.8,1.6s-3,0.5-4.5,0.5c-0.5,0-1.2,0-2-0.1
		s-1.6-0.2-2.4-0.4s-1.6-0.4-2.3-0.6S71.7,49.9,71.2,49.6z"/>
	<path class="st0" d="M124.3,50.9H120l-3.6-9.4h-14.3l-3.4,9.4h-4.4l12.9-33.6h4.1L124.3,50.9z M115.1,38l-5.3-14.3
		c-0.2-0.5-0.3-1.2-0.5-2.3h-0.1c-0.2,1-0.3,1.7-0.5,2.3L103.5,38H115.1z"/>
	<path class="st0" d="M133.2,50.9h-3.9V17.3h3.9V50.9z"/>
	<path class="st0" d="M140.5,49.6v-4.6c0.5,0.5,1.2,0.9,1.9,1.3s1.5,0.7,2.3,0.9s1.6,0.5,2.5,0.6s1.6,0.2,2.3,0.2
		c2.4,0,4.2-0.4,5.4-1.3s1.8-2.2,1.8-3.9c0-0.9-0.2-1.7-0.6-2.4s-0.9-1.3-1.7-1.8s-1.5-1.1-2.5-1.6c-1-0.5-2-1-3.1-1.6
		c-1.2-0.6-2.3-1.2-3.3-1.8s-1.9-1.3-2.6-2s-1.3-1.6-1.8-2.5s-0.6-2-0.6-3.3c0-1.5,0.3-2.9,1-4s1.6-2.1,2.6-2.8s2.3-1.3,3.7-1.6
		s2.8-0.5,4.3-0.5c3.3,0,5.7,0.4,7.2,1.2v4.4c-2-1.4-4.5-2.1-7.6-2.1c-0.9,0-1.7,0.1-2.6,0.3s-1.6,0.5-2.3,0.9s-1.2,0.9-1.6,1.6
		s-0.6,1.4-0.6,2.3c0,0.9,0.2,1.6,0.5,2.2s0.8,1.2,1.4,1.7s1.4,1,2.3,1.5s1.9,1,3.1,1.6c1.2,0.6,2.3,1.2,3.4,1.9s2,1.4,2.8,2.2
		s1.5,1.7,1.9,2.6s0.7,2.1,0.7,3.3c0,1.7-0.3,3.1-1,4.2s-1.5,2.1-2.6,2.8s-2.4,1.2-3.8,1.6s-3,0.5-4.5,0.5c-0.5,0-1.2,0-2-0.1
		s-1.6-0.2-2.4-0.4s-1.6-0.4-2.3-0.6S140.9,49.9,140.5,49.6z"/>
	<path class="st0" d="M181.1,51.5c-4.8,0-8.6-1.6-11.4-4.7s-4.3-7.2-4.3-12.3c0-5.4,1.5-9.7,4.4-12.9s6.9-4.8,11.9-4.8
		c4.6,0,8.4,1.6,11.2,4.7s4.3,7.2,4.3,12.3c0,5.5-1.5,9.8-4.4,13S186,51.5,181.1,51.5z M181.4,20.3c-3.5,0-6.4,1.3-8.6,3.8
		s-3.3,5.9-3.3,10s1.1,7.5,3.2,10s4.9,3.8,8.4,3.8c3.7,0,6.6-1.2,8.7-3.6s3.2-5.8,3.2-10.1c0-4.4-1-7.9-3.1-10.3
		S185,20.3,181.4,20.3z"/>
	<path class="st0" d="M230.8,50.9H226l-17.3-26.8c-0.4-0.7-0.8-1.4-1.1-2.1h-0.1c0.1,0.7,0.2,2.3,0.2,4.6v24.3h-3.9V17.3h5.1
		l16.8,26.4c0.7,1.1,1.2,1.8,1.4,2.3h0.1c-0.2-1-0.2-2.6-0.2-4.9V17.3h3.9V50.9z"/>
</g>
<g>
	<path class="st0" d="M117.5,102.2c-2.5,1.3-5.6,2-9.3,2c-4.8,0-8.6-1.5-11.5-4.6s-4.3-7.1-4.3-12.1c0-5.4,1.6-9.7,4.9-13
		s7.3-5,12.3-5c3.2,0,5.8,0.5,7.9,1.4v4.2c-2.4-1.3-5.1-2-8-2c-3.9,0-7,1.3-9.4,3.9s-3.6,6-3.6,10.3c0,4.1,1.1,7.4,3.4,9.8
		s5.2,3.6,8.8,3.6c3.4,0,6.3-0.8,8.8-2.3V102.2z"/>
	<path class="st0" d="M150.4,103.7H146l-3.6-9.4h-14.3l-3.4,9.4h-4.4L133.4,70h4.1L150.4,103.7z M141.2,90.7l-5.3-14.3
		c-0.2-0.5-0.3-1.2-0.5-2.3h-0.1c-0.2,1-0.3,1.7-0.5,2.3l-5.2,14.3H141.2z"/>
	<path class="st0" d="M179.4,103.7h-4.7l-5.6-9.4c-0.5-0.9-1-1.6-1.5-2.2s-1-1.1-1.5-1.5s-1.1-0.7-1.6-0.9s-1.2-0.3-2-0.3h-3.2v14.3
		h-3.9V70h10c1.5,0,2.8,0.2,4.1,0.6s2.3,0.9,3.2,1.7s1.6,1.7,2.1,2.8s0.8,2.4,0.8,3.9c0,1.2-0.2,2.2-0.5,3.2s-0.9,1.8-1.5,2.6
		s-1.4,1.4-2.3,2s-1.9,1-3.1,1.3v0.1c0.6,0.3,1.1,0.5,1.5,0.9s0.8,0.7,1.2,1.1s0.7,0.9,1.1,1.5s0.8,1.2,1.2,1.9L179.4,103.7z
		 M159.3,73.6v12.2h5.3c1,0,1.9-0.1,2.7-0.4s1.6-0.7,2.2-1.3s1.1-1.2,1.4-2s0.5-1.7,0.5-2.7c0-1.8-0.6-3.2-1.7-4.2s-2.8-1.5-5.1-1.5
		H159.3z"/>
	<path class="st0" d="M184,103.7V70h9.3c11.8,0,17.8,5.5,17.8,16.4c0,5.2-1.6,9.4-4.9,12.5s-7.7,4.7-13.2,4.7H184z M188,73.6v26.5h5
		c4.4,0,7.8-1.2,10.3-3.5s3.7-5.7,3.7-10c0-8.6-4.6-12.9-13.7-12.9H188z"/>
</g>
<rect x="66.2" y="60.8" class="st0" width="166.2" height="0.5"/>
<circle class="st0" cx="181.7" cy="33.8" r="4.3"/>
<circle class="st1" cx="181.7" cy="33.8" r="1.6"/>
</svg>
