<svg xmlns="http://www.w3.org/2000/svg" width="173" height="35" viewBox="0 0 173 35"><path d="M31.21 3.74v1.086c2.33 0 3.46.08 3.46 2.728v17.291c0 2.249-.68 2.77-3.46 2.77V28.7h19.22l.51-6.3h-1.05c-.93 3.931-1.61 4.493-5.08 4.493H41c-1.75 0-2.02-.4-2.02-2.889V16.7h5.13c1.88 0 2.33.363 2.57 3.209h1.05V11.85h-1.05c-.2 2.766-.58 3.046-2.57 3.046h-5.13V5.547h6.04c2.2 0 2.74.082 3.43 3.368l.17.849h1.05l-.31-6.024H31.21zm40.18 0v1.086c2.19 0 3.09.4 3.09 1.726a10.008 10.008 0 01-.79 3.088l-5.05 14.2-5.17-14.887a8.009 8.009 0 01-.55-2.4c0-.843.48-1.689 3.29-1.726V3.74H55.14v1.086c2.2 0 2.57.319 3.53 3.089l7.38 21.428h2.84L75.99 9.4c1.1-3.089 1.55-4.573 3.98-4.573V3.74h-8.58zm13.66 0v1.086c2.36-.043 2.81.843 2.81 3.006v16.33c0 2.29-.1 3.533-2.81 3.453V28.7h10.07v-1.085c-2.47.081-2.95-.721-2.95-3.733V8.276c0-2.849.65-3.45 2.95-3.45V3.74H85.05zm68.08 0v1.086c3.09-.081 3.32.721 3.32 3.45v15.886c0 3.171-.58 3.453-3.32 3.453V28.7h17.23l2.64-6.059h-1.16c-2.57 4.09-2.77 4.253-5.69 4.253h-3.53c-1.58 0-1.85-.324-1.85-1.967V7.992c0-3.006.41-3.166 4.11-3.166V3.74h-11.75zM135 6.869l3.29 10.153h-6.55zm-1.24-3.768l.16.572-6.34 20.332c-.96 3.13-1.41 3.571-3.71 3.609V28.7h8.62v-1.085c-2.74.123-3.43-.4-3.43-1.564a5.635 5.635 0 01.35-1.686l1.68-5.333h7.85l1.65 4.974a7.866 7.866 0 01.48 2.126c0 1.162-.76 1.483-3.47 1.483V28.7h10.69v-1.085c-2.16 0-2.5-.479-3.5-3.609l-6.68-20.9h-4.35zm-13.07-.041c-.21.6-.48.68-2.23.68h-13.77a7.566 7.566 0 01-1.68-.116.843.843 0 01-.55-.564h-1.05l-.62 6.9h1.12c.51-4.175 1.2-4.413 3.22-4.413h4.29v18.9c0 2.65-.55 3.17-3.98 3.17V28.7h12.27v-1.085c-3.6 0-3.98-.441-3.98-3.17v-18.9h4.28c2.06 0 2.75.239 3.23 4.413h1.12l-.62-6.9h-1.05zM7.49 13.894V1.285a15.859 15.859 0 012.18-.164c3.75 0 5.6 2.412 5.6 6.461 0 4.093-1.97 6.133-6.45 6.372h-.13a9.091 9.091 0 01-1.2-.061M5.4.078C3.03.199.78.359 0 .359v1.086c2.81 0 3.18.639 3.18 3.354v19.495c0 2.545-.3 3.467-3.18 3.348v1.083h11v-1.083c-3.13.119-3.51-.522-3.51-3.973v-8.652a17.537 17.537 0 003.31.021 24.192 24.192 0 013.77 4.268c1.42 1.978 6.1 8.841 7.46 10.82 1.94 2.833 4.78 5.1 11.89 4.889v-1.087c-3.44-.437-5.83-1.983-8.34-5.648-1.93-2.8-6.21-9.113-7.75-11.3a28.14 28.14 0 00-2.6-3.26c2.91-1.424 4.69-3.407 4.69-6.54 0-3.646-2.53-7.183-9.8-7.183-.69 0-2.9 0-4.72.081" fill="#fff" fill-rule="evenodd"/></svg>